<svg xmlns="http://www.w3.org/2000/svg" xmlns:xlink="http://www.w3.org/1999/xlink" xml:space="preserve" version="1.1" style="shape-rendering:geometricPrecision;text-rendering:geometricPrecision;image-rendering:optimizeQuality;" viewBox="0 0 544 632" x="0px" y="0px" fill-rule="evenodd" clip-rule="evenodd"><defs><style type="text/css">
   
    .fil0 {fill:black}
   
  </style></defs><g><path class="fil0" d="M505 49l-43 0 0 -20c21,0 17,-29 0,-29l-379 0c-17,0 -22,29 0,29l0 20 -44 0 0 0c-20,0 -39,19 -39,38 0,92 26,145 107,195 29,63 78,112 136,146l-13 30 84 0 -13 -30c59,-34 107,-83 136,-146 82,-50 107,-103 107,-195 0,-19 -19,-38 -39,-38l0 0zm-277 413c-14,0 -18,18 -19,30l126 0c-1,-12 -4,-30 -19,-30l-88 0zm-19 34l-15 0 0 0c-5,0 -9,5 -14,9l-12 21 209 0 -13 -21c-4,-4 -9,-9 -14,-9l0 0 -15 0 -126 0zm-44 34c-5,0 -5,4 -5,4l0 83c0,5 10,15 15,15l194 0c5,0 15,-10 15,-15l0 -83c0,0 0,-4 -5,-4l-214 0zm131 -384l88 0 -68 48 24 83 -68 -49 -68 49 24 -83 -68 -48 88 0 24 -83 24 83zm-204 87c-14,-48 -9,-102 -9,-155l-44 0c-5,0 -10,5 -10,9 0,63 8,105 63,146zm360 0c14,-48 10,-102 10,-155l43 0c5,0 10,5 10,9 0,63 -8,105 -63,146z"></path></g></svg>